<svg xmlns="http://www.w3.org/2000/svg" width="12" height="13" viewBox="0 0 12 13" fill="none">
    <path fill-rule="evenodd" clip-rule="evenodd" d="M2.65586 5.88075C4.11504 3.29358 4.84463 2 6 2C7.15537 2 7.88496 3.29358 9.34414 5.88074L9.52597 6.20313C10.7385 8.35305 11.3448 9.42801 10.7969 10.214C10.2489 11 8.89322 11 6.18183 11H5.81817C3.10678 11 1.75109 11 1.20313 10.214C0.655171 9.42801 1.26146 8.35305 2.47403 6.20314L2.65586 5.88075ZM6 4.125C6.20711 4.125 6.375 4.29289 6.375 4.5V7C6.375 7.20711 6.20711 7.375 6 7.375C5.79289 7.375 5.625 7.20711 5.625 7V4.5C5.625 4.29289 5.79289 4.125 6 4.125ZM6 9C6.27614 9 6.5 8.77614 6.5 8.5C6.5 8.22386 6.27614 8 6 8C5.72386 8 5.5 8.22386 5.5 8.5C5.5 8.77614 5.72386 9 6 9Z" fill="white"/>
</svg>