<svg xmlns="http://www.w3.org/2000/svg" width="17" height="16" viewBox="0 0 17 16" fill="none">
    <path fill-rule="evenodd" clip-rule="evenodd" d="M8.4624 0.833496L9.50065 0.833496C9.77679 0.833496 10.0007 1.05735 10.0007 1.3335C10.0007 1.60964 9.77679 1.8335 9.50065 1.8335H8.50065C6.91517 1.8335 5.77635 1.83456 4.9097 1.95108C4.05743 2.06566 3.54362 2.28359 3.16385 2.66336C2.78408 3.04313 2.56615 3.55695 2.45156 4.40921C2.33505 5.27587 2.33398 6.41468 2.33398 8.00016C2.33398 9.58565 2.33505 10.7245 2.45156 11.5911C2.56615 12.4434 2.78408 12.9572 3.16385 13.337C3.54362 13.7167 4.05743 13.9347 4.9097 14.0492C5.77635 14.1658 6.91517 14.1668 8.50065 14.1668C10.0861 14.1668 11.2249 14.1658 12.0916 14.0492C12.9439 13.9347 13.4577 13.7167 13.8375 13.337C14.2172 12.9572 14.4352 12.4434 14.5497 11.5911C14.6663 10.7245 14.6673 9.58565 14.6673 8.00016V7.00016C14.6673 6.72402 14.8912 6.50016 15.1673 6.50016C15.4435 6.50016 15.6673 6.72402 15.6673 7.00016V8.03841C15.6673 9.57734 15.6673 10.7834 15.5408 11.7244C15.4113 12.6875 15.1411 13.4475 14.5446 14.0441C13.948 14.6406 13.188 14.9108 12.2248 15.0403C11.2839 15.1668 10.0778 15.1668 8.5389 15.1668H8.4624C6.92347 15.1668 5.71745 15.1668 4.77645 15.0403C3.8133 14.9108 3.05328 14.6406 2.45674 14.0441C1.8602 13.4475 1.58998 12.6875 1.46048 11.7244C1.33397 10.7834 1.33398 9.57734 1.33398 8.03841V7.96191C1.33398 6.42298 1.33397 5.21696 1.46048 4.27597C1.58998 3.31281 1.8602 2.55279 2.45674 1.95625C3.05328 1.35971 3.8133 1.08949 4.77645 0.959994C5.71745 0.833481 6.92347 0.833488 8.4624 0.833496ZM11.681 1.51744C12.5929 0.605515 14.0715 0.605515 14.9834 1.51744C15.8953 2.42936 15.8953 3.90788 14.9834 4.81981L10.5513 9.25188C10.3038 9.49943 10.1487 9.65451 9.97571 9.78947C9.77191 9.94842 9.5514 10.0847 9.31808 10.1959C9.11999 10.2903 8.91195 10.3596 8.57984 10.4703L6.64349 11.1158C6.28599 11.2349 5.89185 11.1419 5.62539 10.8754C5.35893 10.609 5.26589 10.2148 5.38505 9.85732L6.0305 7.92098C6.14118 7.58887 6.21051 7.38082 6.30492 7.18273C6.41611 6.94941 6.55239 6.72891 6.71135 6.52511C6.84631 6.35208 7.00139 6.19702 7.24895 5.94949L11.681 1.51744ZM14.2763 2.22455C13.7549 1.70315 12.9095 1.70315 12.3881 2.22455L12.137 2.47563C12.1522 2.53953 12.1733 2.61568 12.2028 2.70061C12.2983 2.97598 12.4791 3.33864 12.8207 3.68016C13.1622 4.02168 13.5248 4.20247 13.8002 4.29801C13.8851 4.32747 13.9613 4.34865 14.0252 4.36378L14.2763 4.1127C14.7977 3.5913 14.7977 2.74595 14.2763 2.22455ZM13.2374 5.15156C12.8934 5.00363 12.4928 4.76647 12.1136 4.38727C11.7343 4.00806 11.4972 3.60738 11.3493 3.2634L7.97899 6.63367C7.70131 6.91134 7.59241 7.02147 7.49986 7.14013C7.38557 7.28666 7.28759 7.4452 7.20764 7.61295C7.1429 7.7488 7.0931 7.89545 6.96892 8.26799L6.68099 9.13178L7.36903 9.81982L8.23282 9.53189C8.60536 9.40771 8.75201 9.35792 8.88786 9.29317C9.05561 9.21323 9.21416 9.11524 9.36069 9.00095C9.47935 8.9084 9.58947 8.7995 9.86715 8.52182L13.2374 5.15156Z" fill="white"/>
</svg>