<svg xmlns="http://www.w3.org/2000/svg" width="37" height="37" viewBox="0 0 37 37" fill="none">
    <mask id="path-1-inside-1_1563_119497" fill="white">
        <path d="M18.5006 32.9016C26.4535 32.9016 32.9006 26.4545 32.9006 18.5016C32.9006 10.5487 26.4535 4.10156 18.5006 4.10156C10.5477 4.10156 4.10059 10.5487 4.10059 18.5016C4.10059 26.4545 10.5477 32.9016 18.5006 32.9016Z"/>
    </mask>
    <path d="M14.1806 14.1816V13.1816C13.6283 13.1816 13.1806 13.6293 13.1806 14.1816H14.1806ZM14.324 14.1816H15.324C15.324 13.6293 14.8763 13.1816 14.324 13.1816V14.1816ZM22.8206 14.1816V13.1816C22.2683 13.1816 21.8206 13.6293 21.8206 14.1816H22.8206ZM22.9481 14.1816H23.9481C23.9481 13.6293 23.5004 13.1816 22.9481 13.1816V14.1816ZM14.324 14.2969V15.2969C14.8763 15.2969 15.324 14.8492 15.324 14.2969H14.324ZM14.1806 14.2969H13.1806C13.1806 14.8492 13.6283 15.2969 14.1806 15.2969V14.2969ZM22.9481 14.2969V15.2969C23.5004 15.2969 23.9481 14.8492 23.9481 14.2969H22.9481ZM22.8206 14.2969H21.8206C21.8206 14.8492 22.2683 15.2969 22.8206 15.2969V14.2969ZM18.5005 22.1073V21.1073V22.1073ZM22.6423 25.4548C22.9329 25.9244 23.5493 26.0694 24.0189 25.7788C24.4885 25.4881 24.6335 24.8717 24.3428 24.4021L22.6423 25.4548ZM12.6581 24.4021C12.3674 24.8717 12.5125 25.4881 12.9821 25.7788C13.4517 26.0694 14.068 25.9244 14.3587 25.4548L12.6581 24.4021ZM14.1806 14.1816V15.1816H14.324V14.1816V13.1816H14.1806V14.1816ZM22.8206 14.1816V15.1816H22.9481V14.1816V13.1816H22.8206V14.1816ZM14.324 14.1816H13.324V14.2969H14.324H15.324V14.1816H14.324ZM14.324 14.2969V13.2969H14.1806V14.2969V15.2969H14.324V14.2969ZM14.1806 14.2969H15.1806V14.1816H14.1806H13.1806V14.2969H14.1806ZM22.9481 14.1816H21.9481V14.2969H22.9481H23.9481V14.1816H22.9481ZM22.9481 14.2969V13.2969H22.8206V14.2969V15.2969H22.9481V14.2969ZM22.8206 14.2969H23.8206V14.1816H22.8206H21.8206V14.2969H22.8206ZM18.5005 22.1073V23.1073C20.2298 23.1073 21.7622 24.033 22.6423 25.4548L23.4925 24.9285L24.3428 24.4021C23.1231 22.4317 20.9686 21.1073 18.5005 21.1073V22.1073ZM13.5084 24.9285L14.3587 25.4548C15.2388 24.033 16.7711 23.1073 18.5005 23.1073V22.1073V21.1073C16.0324 21.1073 13.8778 22.4317 12.6581 24.4021L13.5084 24.9285ZM32.9006 18.5016H30.9006C30.9006 25.3499 25.3489 30.9016 18.5006 30.9016V32.9016V34.9016C27.5581 34.9016 34.9006 27.559 34.9006 18.5016H32.9006ZM18.5006 32.9016V30.9016C11.6523 30.9016 6.10059 25.3499 6.10059 18.5016H4.10059H2.10059C2.10059 27.559 9.44311 34.9016 18.5006 34.9016V32.9016ZM4.10059 18.5016H6.10059C6.10059 11.6532 11.6523 6.10156 18.5006 6.10156V4.10156V2.10156C9.44311 2.10156 2.10059 9.44409 2.10059 18.5016H4.10059ZM18.5006 4.10156V6.10156C25.3489 6.10156 30.9006 11.6532 30.9006 18.5016H32.9006H34.9006C34.9006 9.44409 27.5581 2.10156 18.5006 2.10156V4.10156Z" fill="url(#paint0_linear_1563_119497)" mask="url(#path-1-inside-1_1563_119497)"/>
    <defs>
        <linearGradient id="paint0_linear_1563_119497" x1="18.5006" y1="12.5016" x2="18.5006" y2="28.7016" gradientUnits="userSpaceOnUse">
            <stop stop-color="#F5F5F5"/>
            <stop offset="1" stop-color="#9CA3AF"/>
        </linearGradient>
    </defs>
</svg>