<svg xmlns="http://www.w3.org/2000/svg" width="18" height="18" viewBox="0 0 18 18" fill="none">
    <path d="M8.99986 13.1075C9.29573 13.1075 9.53557 12.8676 9.53557 12.5718V8.28606C9.53557 7.9902 9.29573 7.75035 8.99986 7.75035C8.70399 7.75035 8.46415 7.9902 8.46415 8.28606V12.5718C8.46415 12.8676 8.70399 13.1075 8.99986 13.1075Z" fill="white"/>
    <path d="M8.99986 5.42892C9.39435 5.42892 9.71415 5.74872 9.71415 6.14321C9.71415 6.53769 9.39435 6.85749 8.99986 6.85749C8.60537 6.85749 8.28557 6.53769 8.28557 6.14321C8.28557 5.74872 8.60537 5.42892 8.99986 5.42892Z" fill="white"/>
    <path d="M1.32129 9.00035C1.32129 4.75959 4.7591 1.32178 8.99986 1.32178C13.2406 1.32178 16.6784 4.75959 16.6784 9.00035C16.6784 13.2411 13.2406 16.6789 8.99986 16.6789C4.7591 16.6789 1.32129 13.2411 1.32129 9.00035ZM8.99986 2.39321C5.35084 2.39321 2.39272 5.35132 2.39272 9.00035C2.39272 12.6494 5.35084 15.6075 8.99986 15.6075C12.6489 15.6075 15.607 12.6494 15.607 9.00035C15.607 5.35132 12.6489 2.39321 8.99986 2.39321Z" stroke-width="0.5" stroke="white"/>
</svg>