<svg xmlns="http://www.w3.org/2000/svg" width="15" height="16" viewBox="0 0 15 16" fill="none">
    <g opacity="0.6">
        <path d="M7.5 1.20605C11.2521 1.20605 14.2939 4.24792 14.2939 8C14.2939 11.7521 11.2521 14.7939 7.5 14.7939C3.74792 14.7939 0.706055 11.7521 0.706055 8C0.706055 4.24792 3.74792 1.20605 7.5 1.20605ZM7.5 2.29395C4.34852 2.29395 1.79395 4.84852 1.79395 8C1.79395 11.1515 4.34852 13.7061 7.5 13.7061C10.6515 13.7061 13.2061 11.1515 13.2061 8C13.2061 4.84852 10.6515 2.29395 7.5 2.29395ZM7.5 6.83105C7.8003 6.83105 8.04395 7.0747 8.04395 7.375V11.125C8.04395 11.4253 7.8003 11.6689 7.5 11.6689C7.1997 11.6689 6.95605 11.4253 6.95605 11.125V7.375C6.95605 7.0747 7.1997 6.83105 7.5 6.83105ZM7.5 4.7998C7.8866 4.7998 8.2002 5.1134 8.2002 5.5C8.2002 5.8866 7.8866 6.2002 7.5 6.2002C7.1134 6.2002 6.7998 5.8866 6.7998 5.5C6.7998 5.1134 7.1134 4.7998 7.5 4.7998Z" fill="#07000F" stroke="#07000F" stroke-width="0.15"/>
    </g>
</svg>
