<svg xmlns="http://www.w3.org/2000/svg" width="13" height="12" viewBox="0 0 13 12" fill="none">
    <path fill-rule="evenodd" clip-rule="evenodd" d="M2.875 5.0273V4C2.875 2.13604 4.38604 0.625 6.25 0.625C8.11396 0.625 9.625 2.13604 9.625 4V5.0273C10.1824 5.06893 10.5453 5.17402 10.8107 5.43934C11.25 5.87868 11.25 6.58579 11.25 8C11.25 9.41421 11.25 10.1213 10.8107 10.5607C10.3713 11 9.66421 11 8.25 11H4.25C2.83579 11 2.12868 11 1.68934 10.5607C1.25 10.1213 1.25 9.41421 1.25 8C1.25 6.58579 1.25 5.87868 1.68934 5.43934C1.95466 5.17402 2.31762 5.06893 2.875 5.0273ZM3.625 4C3.625 2.55025 4.80025 1.375 6.25 1.375C7.69975 1.375 8.875 2.55025 8.875 4V5.00179C8.68349 5 8.47576 5 8.25 5H4.25C4.02424 5 3.81651 5 3.625 5.00179V4Z" fill="white" fill-opacity="0.5"/>
</svg>