<svg xmlns="http://www.w3.org/2000/svg" width="20" height="20" viewBox="0 0 20 20" fill="none">
    <path d="M19.3955 9.99952C19.3775 9.35352 19.1805 8.72452 18.8255 8.18352C18.4715 7.64352 17.9735 7.21152 17.3875 6.93752C17.6105 6.33052 17.6575 5.67352 17.5275 5.04052C17.3965 4.40652 17.0905 3.82252 16.6455 3.35352C16.1755 2.90852 15.5925 2.60352 14.9585 2.47152C14.3255 2.34152 13.6685 2.38852 13.0615 2.61152C12.7885 2.02452 12.3575 1.52552 11.8165 1.17152C11.2755 0.817516 10.6465 0.619516 9.99952 0.603516C9.35352 0.620516 8.72652 0.816516 8.18652 1.17152C7.64652 1.52652 7.21752 2.02552 6.94652 2.61152C6.33852 2.38852 5.67952 2.33952 5.04452 2.47152C4.40952 2.60152 3.82452 2.90752 3.35452 3.35352C2.90952 3.82352 2.60552 4.40852 2.47652 5.04152C2.34652 5.67452 2.39652 6.33152 2.62052 6.93752C2.03352 7.21152 1.53352 7.64252 1.17752 8.18252C0.821516 8.72252 0.622516 9.35252 0.603516 9.99952C0.623516 10.6465 0.821516 11.2755 1.17752 11.8165C1.53352 12.3565 2.03352 12.7885 2.62052 13.0615C2.39652 13.6675 2.34652 14.3245 2.47652 14.9575C2.60652 15.5915 2.90952 16.1755 3.35352 16.6455C3.82352 17.0885 4.40752 17.3925 5.04052 17.5235C5.67352 17.6555 6.33052 17.6075 6.93752 17.3875C7.21152 17.9735 7.64252 18.4715 8.18352 18.8265C8.72352 19.1805 9.35352 19.3775 9.99952 19.3955C10.6465 19.3795 11.2755 19.1825 11.8165 18.8285C12.3575 18.4745 12.7885 17.9745 13.0615 17.3885C13.6655 17.6275 14.3275 17.6845 14.9645 17.5525C15.6005 17.4205 16.1845 17.1055 16.6445 16.6455C17.1045 16.1855 17.4205 15.6015 17.5525 14.9645C17.6845 14.3275 17.6275 13.6655 17.3875 13.0615C17.9735 12.7875 18.4715 12.3565 18.8265 11.8155C19.1805 11.2755 19.3775 10.6455 19.3955 9.99952ZM8.66152 13.8495L5.23252 10.4215L6.52552 9.11952L8.59752 11.1915L12.9975 6.39752L14.3445 7.64352L8.66152 13.8495Z" fill="#848097"/>
    <path d="M19.3955 9.99952C19.3775 9.35352 19.1805 8.72452 18.8255 8.18352C18.4715 7.64352 17.9735 7.21152 17.3875 6.93752C17.6105 6.33052 17.6575 5.67352 17.5275 5.04052C17.3965 4.40652 17.0905 3.82252 16.6455 3.35352C16.1755 2.90852 15.5925 2.60352 14.9585 2.47152C14.3255 2.34152 13.6685 2.38852 13.0615 2.61152C12.7885 2.02452 12.3575 1.52552 11.8165 1.17152C11.2755 0.817516 10.6465 0.619516 9.99952 0.603516C9.35352 0.620516 8.72652 0.816516 8.18652 1.17152C7.64652 1.52652 7.21752 2.02552 6.94652 2.61152C6.33852 2.38852 5.67952 2.33952 5.04452 2.47152C4.40952 2.60152 3.82452 2.90752 3.35452 3.35352C2.90952 3.82352 2.60552 4.40852 2.47652 5.04152C2.34652 5.67452 2.39652 6.33152 2.62052 6.93752C2.03352 7.21152 1.53352 7.64252 1.17752 8.18252C0.821516 8.72252 0.622516 9.35252 0.603516 9.99952C0.623516 10.6465 0.821516 11.2755 1.17752 11.8165C1.53352 12.3565 2.03352 12.7885 2.62052 13.0615C2.39652 13.6675 2.34652 14.3245 2.47652 14.9575C2.60652 15.5915 2.90952 16.1755 3.35352 16.6455C3.82352 17.0885 4.40752 17.3925 5.04052 17.5235C5.67352 17.6555 6.33052 17.6075 6.93752 17.3875C7.21152 17.9735 7.64252 18.4715 8.18352 18.8265C8.72352 19.1805 9.35352 19.3775 9.99952 19.3955C10.6465 19.3795 11.2755 19.1825 11.8165 18.8285C12.3575 18.4745 12.7885 17.9745 13.0615 17.3885C13.6655 17.6275 14.3275 17.6845 14.9645 17.5525C15.6005 17.4205 16.1845 17.1055 16.6445 16.6455C17.1045 16.1855 17.4205 15.6015 17.5525 14.9645C17.6845 14.3275 17.6275 13.6655 17.3875 13.0615C17.9735 12.7875 18.4715 12.3565 18.8265 11.8155C19.1805 11.2755 19.3775 10.6455 19.3955 9.99952ZM8.66152 13.8495L5.23252 10.4215L6.52552 9.11952L8.59752 11.1915L12.9975 6.39752L14.3445 7.64352L8.66152 13.8495Z" fill="url(#paint0_linear_1716_48160)"/>
    <defs>
        <linearGradient id="paint0_linear_1716_48160" x1="8.76326" y1="-1.13982" x2="10.2484" y2="21.1378" gradientUnits="userSpaceOnUse">
            <stop stop-color="#8C421D"/>
            <stop offset="0.325272" stop-color="#FBE67B"/>
            <stop offset="0.535488" stop-color="#FCFBE7"/>
            <stop offset="0.769917" stop-color="#FBE67B"/>
            <stop offset="1" stop-color="#8C421D"/>
        </linearGradient>
    </defs>
</svg>