<svg xmlns="http://www.w3.org/2000/svg" width="12" height="12" viewBox="0 0 12 12" fill="none">
    <g opacity="0.5">
        <circle cx="4.50049" cy="3" r="2" fill="white"/>
        <ellipse cx="4.50049" cy="8.5" rx="3.5" ry="2" fill="white"/>
        <path d="M10.4996 8.49986C10.4996 9.32829 9.48179 9.99984 8.23915 9.99984C8.60526 9.59968 8.85699 9.09739 8.85699 8.50056C8.85699 7.90303 8.60467 7.40027 8.23788 6.99988C9.48052 6.99988 10.4996 7.67143 10.4996 8.49986Z" fill="white"/>
        <path d="M8.99957 3C8.99957 3.82843 8.328 4.5 7.49957 4.5C7.31893 4.5 7.14574 4.46807 6.98535 4.40954C7.2219 3.99349 7.35699 3.51224 7.35699 2.99944C7.35699 2.48702 7.2221 2.0061 6.98588 1.59027C7.14612 1.53186 7.31912 1.5 7.49957 1.5C8.328 1.5 8.99957 2.17157 8.99957 3Z" fill="white"/>
    </g>
</svg>