<svg xmlns="http://www.w3.org/2000/svg" width="10" height="11" viewBox="0 0 10 11" fill="none">
<path fill-rule="evenodd" clip-rule="evenodd" d="M10 5.5C10 8.26142 7.76142 10.5 5 10.5C2.23858 10.5 0 8.26142 0 5.5C0 2.73858 2.23858 0.5 5 0.5C7.76142 0.5 10 2.73858 10 5.5ZM7.01516 3.98483C7.16161 4.13128 7.16161 4.36872 7.01516 4.51516L4.51517 7.01517C4.36872 7.16161 4.13128 7.16161 3.98483 7.01517L2.98483 6.01517C2.83839 5.86872 2.83839 5.63128 2.98483 5.48483C3.13128 5.33839 3.36872 5.33839 3.51517 5.48483L4.25 6.21967L5.36742 5.10225L6.48483 3.98483C6.63128 3.83839 6.86872 3.83839 7.01516 3.98483Z" fill="white"/>
</svg>