<svg xmlns="http://www.w3.org/2000/svg" width="10" height="10" viewBox="0 0 10 10" fill="none">
    <g clip-path="url(#clip0_1438_254165)">
        <path d="M9.57379 3.54293L8.71187 2.68102C8.64234 2.61241 8.54962 2.57236 8.452 2.56874C8.35438 2.56512 8.25896 2.59821 8.18453 2.66148C8.06963 2.75928 7.92218 2.81035 7.77141 2.80456C7.62063 2.79877 7.47753 2.73656 7.37047 2.63023C7.2642 2.52318 7.20202 2.38012 7.19623 2.22939C7.19044 2.07866 7.24148 1.93125 7.33922 1.81637C7.40249 1.74194 7.43558 1.64652 7.43196 1.5489C7.42835 1.45128 7.38829 1.35856 7.31969 1.28902L6.45699 0.426133C6.38409 0.353368 6.28529 0.3125 6.18229 0.3125C6.07928 0.3125 5.98048 0.353368 5.90758 0.426133L4.53356 1.79996C4.44874 1.88511 4.38477 1.98872 4.34664 2.1027C4.33922 2.12461 4.32685 2.14452 4.31049 2.16088C4.29413 2.17724 4.27422 2.18961 4.25231 2.19703C4.13828 2.23515 4.03465 2.2992 3.94957 2.38414L0.426133 5.90758C0.353368 5.98048 0.3125 6.07928 0.3125 6.18229C0.3125 6.28529 0.353368 6.38409 0.426133 6.45699L1.28902 7.31891C1.35856 7.38751 1.45128 7.42757 1.5489 7.43118C1.64652 7.4348 1.74194 7.40171 1.81637 7.33844C1.93099 7.23985 2.07864 7.18821 2.22973 7.19389C2.38082 7.19956 2.52418 7.26212 2.63109 7.36903C2.738 7.47594 2.80056 7.6193 2.80623 7.77039C2.8119 7.92147 2.76027 8.06912 2.66168 8.18375C2.59841 8.25817 2.56532 8.3536 2.56894 8.45122C2.57255 8.54883 2.61261 8.64155 2.68121 8.71109L3.54313 9.57301C3.61603 9.64577 3.71483 9.68664 3.81783 9.68664C3.92084 9.68664 4.01963 9.64577 4.09254 9.57301L7.61598 6.04957C7.70089 5.96454 7.76494 5.86098 7.80309 5.74703C7.81047 5.72505 7.82285 5.70507 7.83925 5.68867C7.85565 5.67227 7.87563 5.65989 7.89762 5.6525C8.01154 5.61438 8.11509 5.55041 8.20016 5.46559L9.57399 4.09156C9.64649 4.01866 9.68717 3.92002 9.68713 3.81721C9.68709 3.71439 9.64634 3.61578 9.57379 3.54293ZM5.11344 2.96383C5.08442 2.99285 5.04997 3.01588 5.01205 3.03159C4.97413 3.0473 4.93349 3.05538 4.89244 3.05538C4.8514 3.05538 4.81076 3.0473 4.77284 3.03159C4.73492 3.01588 4.70046 2.99285 4.67145 2.96383L4.44664 2.73902C4.38946 2.68012 4.35776 2.60109 4.35837 2.519C4.35899 2.43692 4.39188 2.35837 4.44994 2.30034C4.508 2.2423 4.58656 2.20944 4.66865 2.20886C4.75074 2.20828 4.82976 2.24002 4.88863 2.29723L5.11344 2.52184C5.14246 2.55086 5.16549 2.58531 5.1812 2.62323C5.19691 2.66115 5.20499 2.70179 5.20499 2.74283C5.20499 2.78388 5.19691 2.82452 5.1812 2.86244C5.16549 2.90036 5.14246 2.93481 5.11344 2.96383ZM5.97281 3.8232C5.91421 3.88176 5.83476 3.91466 5.75191 3.91466C5.66907 3.91466 5.58962 3.88176 5.53102 3.8232L5.31617 3.60836C5.25756 3.54975 5.22463 3.47025 5.22463 3.38736C5.22463 3.30447 5.25756 3.22498 5.31617 3.16637C5.37478 3.10776 5.45428 3.07483 5.53717 3.07483C5.62006 3.07483 5.69955 3.10776 5.75816 3.16637L5.97301 3.38121C6.00213 3.41023 6.02525 3.44471 6.04103 3.48267C6.0568 3.52064 6.06494 3.56135 6.06495 3.60246C6.06497 3.64357 6.05688 3.68429 6.04113 3.72227C6.02539 3.76025 6.0023 3.79475 5.9732 3.82379L5.97281 3.8232ZM6.83219 4.68258C6.80317 4.7116 6.76872 4.73463 6.7308 4.75034C6.69288 4.76605 6.65224 4.77413 6.61119 4.77413C6.57015 4.77413 6.52951 4.76605 6.49159 4.75034C6.45367 4.73463 6.41921 4.7116 6.3902 4.68258L6.17535 4.46773C6.11817 4.40883 6.08647 4.3298 6.08709 4.24771C6.0877 4.16563 6.1206 4.08708 6.17865 4.02905C6.23671 3.97101 6.31528 3.93816 6.39736 3.93757C6.47945 3.93699 6.55847 3.96873 6.61734 4.02594L6.83219 4.24078C6.86139 4.26975 6.88459 4.3042 6.90046 4.34216C6.91632 4.38011 6.92453 4.42083 6.92462 4.46197C6.92471 4.5031 6.91668 4.54385 6.90099 4.58188C6.88529 4.6199 6.86224 4.65446 6.83316 4.68356L6.83219 4.68258ZM7.69996 5.5525C7.67094 5.58153 7.63649 5.60455 7.59857 5.62026C7.56065 5.63597 7.52001 5.64405 7.47896 5.64405C7.43792 5.64405 7.39728 5.63597 7.35936 5.62026C7.32144 5.60455 7.28699 5.58153 7.25797 5.5525L7.03453 5.32789C7.0049 5.29896 6.98131 5.26442 6.96514 5.22629C6.94897 5.18816 6.94054 5.1472 6.94034 5.10578C6.94015 5.06436 6.94818 5.02332 6.96399 4.98504C6.97979 4.94676 7.00305 4.912 7.03241 4.88278C7.06176 4.85357 7.09664 4.83048 7.13499 4.81486C7.17335 4.79924 7.21444 4.7914 7.25585 4.7918C7.29727 4.7922 7.33819 4.80083 7.37624 4.81718C7.41429 4.83354 7.44871 4.8573 7.4775 4.88707L7.70113 5.11148C7.73015 5.14052 7.75316 5.17498 7.76885 5.21291C7.78454 5.25083 7.79261 5.29148 7.79259 5.33252C7.79257 5.37357 7.78447 5.4142 7.76874 5.45212C7.75302 5.49003 7.72998 5.52447 7.70094 5.55348L7.69996 5.5525Z" fill="black"/>
        <path d="M9.57379 3.54293L8.71187 2.68102C8.64234 2.61241 8.54962 2.57236 8.452 2.56874C8.35438 2.56512 8.25896 2.59821 8.18453 2.66148C8.06963 2.75928 7.92218 2.81035 7.77141 2.80456C7.62063 2.79877 7.47753 2.73656 7.37047 2.63023C7.2642 2.52318 7.20202 2.38012 7.19623 2.22939C7.19044 2.07866 7.24148 1.93125 7.33922 1.81637C7.40249 1.74194 7.43558 1.64652 7.43196 1.5489C7.42835 1.45128 7.38829 1.35856 7.31969 1.28902L6.45699 0.426133C6.38409 0.353368 6.28529 0.3125 6.18229 0.3125C6.07928 0.3125 5.98048 0.353368 5.90758 0.426133L4.53356 1.79996C4.44874 1.88511 4.38477 1.98872 4.34664 2.1027C4.33922 2.12461 4.32685 2.14452 4.31049 2.16088C4.29413 2.17724 4.27422 2.18961 4.25231 2.19703C4.13828 2.23515 4.03465 2.2992 3.94957 2.38414L0.426133 5.90758C0.353368 5.98048 0.3125 6.07928 0.3125 6.18229C0.3125 6.28529 0.353368 6.38409 0.426133 6.45699L1.28902 7.31891C1.35856 7.38751 1.45128 7.42757 1.5489 7.43118C1.64652 7.4348 1.74194 7.40171 1.81637 7.33844C1.93099 7.23985 2.07864 7.18821 2.22973 7.19389C2.38082 7.19956 2.52418 7.26212 2.63109 7.36903C2.738 7.47594 2.80056 7.6193 2.80623 7.77039C2.8119 7.92147 2.76027 8.06912 2.66168 8.18375C2.59841 8.25817 2.56532 8.3536 2.56894 8.45122C2.57255 8.54883 2.61261 8.64155 2.68121 8.71109L3.54313 9.57301C3.61603 9.64577 3.71483 9.68664 3.81783 9.68664C3.92084 9.68664 4.01963 9.64577 4.09254 9.57301L7.61598 6.04957C7.70089 5.96454 7.76494 5.86098 7.80309 5.74703C7.81047 5.72505 7.82285 5.70507 7.83925 5.68867C7.85565 5.67227 7.87563 5.65989 7.89762 5.6525C8.01154 5.61438 8.11509 5.55041 8.20016 5.46559L9.57399 4.09156C9.64649 4.01866 9.68717 3.92002 9.68713 3.81721C9.68709 3.71439 9.64634 3.61578 9.57379 3.54293ZM5.11344 2.96383C5.08442 2.99285 5.04997 3.01588 5.01205 3.03159C4.97413 3.0473 4.93349 3.05538 4.89244 3.05538C4.8514 3.05538 4.81076 3.0473 4.77284 3.03159C4.73492 3.01588 4.70046 2.99285 4.67145 2.96383L4.44664 2.73902C4.38946 2.68012 4.35776 2.60109 4.35837 2.519C4.35899 2.43692 4.39188 2.35837 4.44994 2.30034C4.508 2.2423 4.58656 2.20944 4.66865 2.20886C4.75074 2.20828 4.82976 2.24002 4.88863 2.29723L5.11344 2.52184C5.14246 2.55086 5.16549 2.58531 5.1812 2.62323C5.19691 2.66115 5.20499 2.70179 5.20499 2.74283C5.20499 2.78388 5.19691 2.82452 5.1812 2.86244C5.16549 2.90036 5.14246 2.93481 5.11344 2.96383ZM5.97281 3.8232C5.91421 3.88176 5.83476 3.91466 5.75191 3.91466C5.66907 3.91466 5.58962 3.88176 5.53102 3.8232L5.31617 3.60836C5.25756 3.54975 5.22463 3.47025 5.22463 3.38736C5.22463 3.30447 5.25756 3.22498 5.31617 3.16637C5.37478 3.10776 5.45428 3.07483 5.53717 3.07483C5.62006 3.07483 5.69955 3.10776 5.75816 3.16637L5.97301 3.38121C6.00213 3.41023 6.02525 3.44471 6.04103 3.48267C6.0568 3.52064 6.06494 3.56135 6.06495 3.60246C6.06497 3.64357 6.05688 3.68429 6.04113 3.72227C6.02539 3.76025 6.0023 3.79475 5.9732 3.82379L5.97281 3.8232ZM6.83219 4.68258C6.80317 4.7116 6.76872 4.73463 6.7308 4.75034C6.69288 4.76605 6.65224 4.77413 6.61119 4.77413C6.57015 4.77413 6.52951 4.76605 6.49159 4.75034C6.45367 4.73463 6.41921 4.7116 6.3902 4.68258L6.17535 4.46773C6.11817 4.40883 6.08647 4.3298 6.08709 4.24771C6.0877 4.16563 6.1206 4.08708 6.17865 4.02905C6.23671 3.97101 6.31528 3.93816 6.39736 3.93757C6.47945 3.93699 6.55847 3.96873 6.61734 4.02594L6.83219 4.24078C6.86139 4.26975 6.88459 4.3042 6.90046 4.34216C6.91632 4.38011 6.92453 4.42083 6.92462 4.46197C6.92471 4.5031 6.91668 4.54385 6.90099 4.58188C6.88529 4.6199 6.86224 4.65446 6.83316 4.68356L6.83219 4.68258ZM7.69996 5.5525C7.67094 5.58153 7.63649 5.60455 7.59857 5.62026C7.56065 5.63597 7.52001 5.64405 7.47896 5.64405C7.43792 5.64405 7.39728 5.63597 7.35936 5.62026C7.32144 5.60455 7.28699 5.58153 7.25797 5.5525L7.03453 5.32789C7.0049 5.29896 6.98131 5.26442 6.96514 5.22629C6.94897 5.18816 6.94054 5.1472 6.94034 5.10578C6.94015 5.06436 6.94818 5.02332 6.96399 4.98504C6.97979 4.94676 7.00305 4.912 7.03241 4.88278C7.06176 4.85357 7.09664 4.83048 7.13499 4.81486C7.17335 4.79924 7.21444 4.7914 7.25585 4.7918C7.29727 4.7922 7.33819 4.80083 7.37624 4.81718C7.41429 4.83354 7.44871 4.8573 7.4775 4.88707L7.70113 5.11148C7.73015 5.14052 7.75316 5.17498 7.76885 5.21291C7.78454 5.25083 7.79261 5.29148 7.79259 5.33252C7.79257 5.37357 7.78447 5.4142 7.76874 5.45212C7.75302 5.49003 7.72998 5.52447 7.70094 5.55348L7.69996 5.5525Z" fill="url(#paint0_linear_1438_254165)"/>
    </g>
    <defs>
        <linearGradient id="paint0_linear_1438_254165" x1="4.99982" y1="3.04662" x2="4.99982" y2="8.31958" gradientUnits="userSpaceOnUse">
            <stop stop-color="#F5F5F5"/>
            <stop offset="1" stop-color="#9CA3AF"/>
        </linearGradient>
        <clipPath id="clip0_1438_254165">
            <rect width="10" height="10" fill="white"/>
        </clipPath>
    </defs>
</svg>