<svg xmlns="http://www.w3.org/2000/svg" width="20" height="20" viewBox="0 0 20 20" fill="none">
    <circle cx="9.99984" cy="5.00002" r="3.33333" fill="white"/>
    <path fill-rule="evenodd" clip-rule="evenodd" d="M13.7502 18.3333C12.3752 18.3333 11.6878 18.3333 11.2606 17.9062C10.8335 17.4791 10.8335 16.7916 10.8335 15.4167C10.8335 14.0417 10.8335 13.3543 11.2606 12.9271C11.6878 12.5 12.3752 12.5 13.7502 12.5C15.1251 12.5 15.8126 12.5 16.2397 12.9271C16.6668 13.3543 16.6668 14.0417 16.6668 15.4167C16.6668 16.7916 16.6668 17.4791 16.2397 17.9062C15.8126 18.3333 15.1251 18.3333 13.7502 18.3333ZM14.2363 14.1204C14.2363 13.8519 14.0186 13.6343 13.7502 13.6343C13.4817 13.6343 13.2641 13.8519 13.2641 14.1204V14.9306H12.4539C12.1854 14.9306 11.9678 15.1482 11.9678 15.4167C11.9678 15.6851 12.1854 15.9028 12.4539 15.9028H13.2641V16.713C13.2641 16.9814 13.4817 17.1991 13.7502 17.1991C14.0186 17.1991 14.2363 16.9814 14.2363 16.713V15.9028H15.0465C15.3149 15.9028 15.5326 15.6851 15.5326 15.4167C15.5326 15.1482 15.3149 14.9306 15.0465 14.9306H14.2363V14.1204Z" fill="white"/>
    <path d="M13.0653 11.2523C12.6711 11.2571 12.3036 11.2715 11.9834 11.3145C11.4477 11.3865 10.8613 11.5587 10.3768 12.0432C9.89223 12.5278 9.72008 13.1142 9.64805 13.6499C9.58332 14.1313 9.58341 14.7195 9.5835 15.345V15.4883C9.58341 16.1137 9.58332 16.7019 9.64805 17.1834C9.69859 17.5593 9.79844 17.9602 10.0209 18.3333C10.014 18.3333 10.0071 18.3333 10.0002 18.3333C3.3335 18.3333 3.3335 16.6544 3.3335 14.5833C3.3335 12.5122 6.31826 10.8333 10.0002 10.8333C11.1053 10.8333 12.1477 10.9846 13.0653 11.2523Z" fill="white"/>
</svg>