<svg xmlns="http://www.w3.org/2000/svg" width="36" height="37" viewBox="0 0 36 37" fill="none">
    <path fill-rule="evenodd" clip-rule="evenodd" d="M13.125 5.75C13.125 5.12868 13.6287 4.625 14.25 4.625H21.75C22.3713 4.625 22.875 5.12868 22.875 5.75C22.875 6.37132 22.3713 6.875 21.75 6.875H14.25C13.6287 6.875 13.125 6.37132 13.125 5.75ZM14.9374 8.37533H21.0622C23.116 8.37532 24.7433 8.37531 26.0429 8.50751C27.3743 8.64295 28.4859 8.92642 29.4582 9.57611C30.2362 10.0959 30.9042 10.7639 31.424 11.5419C32.0737 12.5142 32.3572 13.6256 32.4927 14.957C32.625 16.257 32.625 17.8851 32.625 19.9401V20.0623C32.625 22.1162 32.625 23.7435 32.4928 25.0431C32.3574 26.3745 32.0739 27.4861 31.4242 28.4584C30.9044 29.2364 30.2364 29.9044 29.4584 30.4242C28.4861 31.0739 27.3745 31.3574 26.0431 31.4928C24.7435 31.625 23.1162 31.625 21.0623 31.625H14.9377C12.8838 31.625 11.2565 31.625 9.95692 31.4928C8.62545 31.3574 7.51389 31.0739 6.54156 30.4242C5.76358 29.9044 5.09561 29.2364 4.57578 28.4584C3.92609 27.4861 3.64262 26.3745 3.50717 25.0431C3.37498 23.7435 3.37499 22.1162 3.375 20.0624V19.9348C3.37499 17.8819 3.37498 16.2553 3.50715 14.9562C3.64257 13.6252 3.926 12.514 4.57556 11.5419C5.09539 10.7639 5.76336 10.0959 6.54134 9.57611C7.51367 8.92642 8.62523 8.64295 9.95669 8.50751C11.2562 8.37531 12.8836 8.37532 14.9374 8.37533ZM10.1844 10.746C9.03084 10.8633 8.33238 11.0854 7.79137 11.4469C7.25907 11.8026 6.80204 12.2596 6.44636 12.7919C6.08496 13.3328 5.86291 14.031 5.74559 15.184C5.62636 16.3558 5.625 17.868 5.625 19.9972V20C5.625 22.1301 5.62636 23.643 5.74562 24.8154C5.86297 25.9689 6.08509 26.6674 6.44659 27.2084C6.80226 27.7407 7.25929 28.1977 7.7916 28.5534C8.33261 28.9149 9.03107 29.137 10.1846 29.2544C11.357 29.3736 12.8699 29.375 15 29.375H21C23.1301 29.375 24.643 29.3736 25.8154 29.2544C26.9689 29.137 27.6674 28.9149 28.2084 28.5534C28.7407 28.1977 29.1977 27.7407 29.5534 27.2084C29.9149 26.6674 30.137 25.9689 30.2544 24.8154C30.3736 23.643 30.375 22.1301 30.375 20C30.375 17.8699 30.3736 16.3571 30.2543 15.1849C30.1369 14.0314 29.9147 13.333 29.5532 12.7919C29.1975 12.2596 28.7405 11.8026 28.2082 11.4469C27.6672 11.0854 26.9687 10.8633 25.8151 10.746C24.6428 10.6267 23.1299 10.6253 20.9998 10.6253H14.9998C12.8697 10.6253 11.3568 10.6267 10.1844 10.746ZM18 16.625C16.136 16.625 14.625 18.136 14.625 20C14.625 21.864 16.136 23.375 18 23.375C19.864 23.375 21.375 21.864 21.375 20C21.375 18.136 19.864 16.625 18 16.625ZM12.375 20C12.375 16.8934 14.8934 14.375 18 14.375C21.1066 14.375 23.625 16.8934 23.625 20C23.625 23.1066 21.1066 25.625 18 25.625C14.8934 25.625 12.375 23.1066 12.375 20ZM25.125 15.5C25.125 14.8787 25.6287 14.375 26.25 14.375H27C27.6213 14.375 28.125 14.8787 28.125 15.5C28.125 16.1213 27.6213 16.625 27 16.625H26.25C25.6287 16.625 25.125 16.1213 25.125 15.5Z" fill="#07000F"/>
</svg>